Coordinates
version=1
nRows=17
nColumns=33
inDegrees=yes

Units are S.I. units (second, meters, Newtons, ...)
Angles are in degrees.

endheader
time	ground_thorax_rot_x	ground_thorax_rot_y	ground_thorax_rot_z	ground_thorax_tx	ground_thorax_ty	ground_thorax_tz	clav_prot_r	clav_elev_r	scapula_abduction_r	scapula_elevation_r	scapula_upward_rot_r	scapula_winging_r	shoulder_elv_r	plane_of_elev_r	axial_rot_r	elbow_flexion_r	pro_sup_r	wrist_flex_r	wrist_dev_r	clav_prot_l	clav_elev_l	scapula_abduction_l	scapula_elevation_l	scapula_upward_rot_l	scapula_winging_l	shoulder_elv_l	plane_of_elev_l	axial_rot_l	elbow_flexion_l	pro_sup_l	wrist_flex_l	wrist_dev_l
      3.12000000	     33.91008132	     25.12642807	     32.55517177	    -95.38193188	    785.70029273	      8.46399615	     15.88960285	     38.49699854	     37.79068564	     45.00000000	    -45.00000000	   1716.66567624	   -292.57590520	     30.84472162	     74.21815010	    378.56831497	    228.42814485	      6.22549610	      4.13999121	     10.95449143	    -45.00000000	    -37.99913157	     45.00000000	    -45.00000000	  -3506.08149630	    429.79303490	     21.83453097	    -27.93415188	    727.80115369	     29.81989677	     11.80316500	    -20.70051914
      3.13000000	     33.27542698	     25.82798570	     33.70034867	    -90.63510918	    782.99729857	      8.38829698	     15.13161630	     38.12241889	     37.22764869	     45.00000000	    -45.00000000	   1717.06331321	   -292.96001158	     30.60888534	     75.40880463	    378.00953816	    230.30106858	      5.98920829	      4.02517155	     11.58280995	    -45.00000000	    -38.21820499	     45.00000000	    -45.00000000	  -3506.02072447	    429.17590081	     21.87228041	    -28.11042098	    727.28890655	     30.63636440	     12.18389903	    -20.59702176
      3.14000000	     32.78237551	     26.27980775	     34.67945116	    -86.05563631	    780.42755000	      8.29502122	     15.16017637	     38.08900921	     36.96260658	     45.00000000	    -45.00000000	   1717.41699390	   -293.30405340	     30.32672989	     76.55338692	    377.66279996	    232.49871077	      5.76163006	      4.09056953	     11.47930863	    -45.00000000	    -38.11163167	     45.00000000	    -45.00000000	  -3506.22148535	    428.71528240	     21.72528796	    -27.94686326	    726.81404783	     31.44696340	     12.32288507	    -20.48875838
      3.15000000	     32.36729635	     26.72233657	     35.52803806	    -81.67751447	    778.02935951	      8.18981710	     15.17967032	     38.06958580	     36.71126716	     45.00000000	    -45.00000000	   1717.70454373	   -293.62632348	     29.99837492	     77.62009482	    377.25432739	    235.02080697	      5.52909930	      4.20746340	     11.37984479	    -45.00000000	    -37.99671995	     45.00000000	    -45.00000000	  -3506.43068962	    428.23353691	     21.62771610	    -27.63399860	    726.31550203	     32.25934119	     12.44456876	    -20.39282178
      3.16000000	     30.85713154	     27.96018719	     37.89655543	    -77.52009779	    775.83450358	      8.08083984	     15.23055048	     37.55859125	     34.88555907	     45.00000000	    -45.00000000	   1719.12213147	   -292.84091085	     29.18925377	     78.64539362	    377.27155392	    237.10815360	      5.06486245	      4.13282125	     11.36425482	    -45.00000000	    -38.42194698	     45.00000000	    -45.00000000	  -3506.48400019	    428.15665346	     20.65667951	    -26.98196497	    725.85657020	     32.81596231	     12.33532892	    -20.10364131
      3.17000000	     32.02217786	     26.75838430	     36.60126165	    -73.58995140	    773.87053951	      7.97881616	     16.85634351	     38.66188552	     36.44005315	     45.00000000	    -45.00000000	   1718.50573545	   -293.85127924	     29.88807800	     79.09625951	    375.77719069	    246.03777987	      4.90609286	      5.36451268	      9.82005140	    -45.00000000	    -36.76351881	     45.00000000	    -45.00000000	  -3507.46824565	    427.76532949	     21.44604972	    -25.14753687	    724.88255014	     34.46665192	     12.38860305	    -20.23964141
      3.18000000	     31.25829231	     27.38881232	     37.49676764	    -69.91590747	    772.17373951	      7.89435724	     16.04291053	     38.11446142	     36.20796457	     45.00000000	    -45.00000000	   1718.76996737	   -293.40631937	     31.67347445	     38.74487808	    369.21543860	    381.67685399	     16.48841411	     14.00987661	     11.20151720	    -45.00000000	    -37.49059879	     45.00000000	    -45.00000000	  -3507.67413334	    427.18596645	     22.39309690	    -17.81386055	    723.70847958	     42.76304609	     11.94184704	    -21.36382462
      3.19000000	     30.74698216	     27.70163986	     38.35030854	    -66.50413650	    770.76540404	      7.83963165	     15.18829894	     38.02940414	     35.73171955	     45.00000000	    -45.00000000	   1719.11420054	   -293.58440486	     31.70016543	     38.42904515	    368.72163534	    381.71894541	     16.36092519	     14.73028536	     11.26616854	    -45.00000000	    -37.54467168	     45.00000000	    -45.00000000	  -3507.43231904	    426.62673727	     22.26863448	    -19.67889232	    723.27333352	     41.16612822	     12.17686516	    -20.89482622
      3.20000000	     29.40999993	     28.58128541	     40.23626330	    -63.36669161	    769.66395031	      7.82519112	     15.39765801	     37.90172368	     34.11425937	     45.00000000	    -45.00000000	   1720.25013027	   -293.10956750	     31.25570829	     38.72621239	    368.65763531	    381.99030637	     16.25247367	     14.76168311	     11.23136335	    -45.00000000	    -37.99055130	     45.00000000	    -45.00000000	  -3507.46779545	    426.71477435	     21.36544576	    -19.83835446	    722.83111505	     40.36315646	     11.91365373	    -20.35195272
      3.21000000	     29.92597393	     28.05797216	     39.64134109	    -60.50491177	    768.87538395	      7.85948145	     15.22827955	     38.08288792	     35.36323651	     45.00000000	    -45.00000000	   1719.71694999	   -294.05827444	     31.31254902	     39.37517305	    368.45434769	    382.61198428	     16.29346437	     14.73220210	     11.11135995	    -45.00000000	    -37.44076202	     45.00000000	    -45.00000000	  -3507.83171631	    426.25295108	     21.76627551	    -19.99278127	    722.33774202	     39.67849546	     12.15889102	    -20.25688117
      3.22000000	     29.48280796	     28.24868120	     40.28545164	    -57.92646758	    768.39467837	      7.94910631	     15.09735095	     37.92857035	     35.01624251	     45.00000000	    -45.00000000	   1720.06513375	   -294.18656531	     31.21737838	     39.66464096	    368.33649755	    383.14071277	     16.26259160	     14.73346640	     11.19696606	    -45.00000000	    -37.42563475	     45.00000000	    -45.00000000	  -3507.78254274	    425.97832307	     21.84891484	    -19.60513438	    721.75876180	     39.37558672	     12.07136640	    -19.99800282
      3.23000000	     29.17818132	     28.31188614	     40.76896950	    -55.63550873	    768.20649313	      8.09856311	     15.11942268	     37.89262355	     34.83546191	     45.00000000	    -45.00000000	   1720.31823956	   -294.26910087	     31.13069644	     39.96409726	    368.35574444	    383.66425770	     16.27527806	     14.64184494	     11.24439111	    -45.00000000	    -37.35252473	     45.00000000	    -45.00000000	  -3507.93271973	    425.85176445	     21.76978179	    -19.12596867	    721.35732159	     39.31556212	     11.89354062	    -19.83199892
      3.24000000	     28.63927668	     28.54311986	     41.35562052	    -53.63198090	    768.28324609	      8.31079861	     15.37183315	     37.87536685	     33.96611803	     45.00000000	    -45.00000000	   1720.82859603	   -294.01643845	     31.27480830	     40.25908354	    368.38165692	    384.09513313	     16.26415988	     14.52799696	     11.22462452	    -45.00000000	    -37.76236529	     45.00000000	    -45.00000000	  -3508.09713050	    425.91693651	     21.48121645	    -18.60045599	    721.34837627	     39.32801795	     11.51393387	    -19.71736053
      3.25000000	     28.51181262	     28.41784027	     41.55758439	    -51.91950576	    768.58929042	      8.58614813	     14.81377006	     37.76413584	     34.15373732	     45.00000000	    -45.00000000	   1720.89865353	   -294.28578192	     31.21827848	     40.53736235	    368.31817431	    384.54512719	     16.29435506	     14.46868325	     11.52263426	    -45.00000000	    -37.62447931	     45.00000000	    -45.00000000	  -3508.08100149	    425.67730201	     21.75512710	    -18.42352823	    720.90252466	     39.56800562	     11.44914986	    -19.69259668
      3.26000000	     28.46511258	     28.29099274	     41.43639918	    -50.48878888	    769.08380857	      8.92404129	     15.35840852	     37.86376565	     34.19205067	     45.00000000	    -45.00000000	   1721.00690481	   -294.36535677	     31.21404281	     40.76335119	    368.41263022	    384.94254187	     16.32647191	     14.32420460	     11.27976846	    -45.00000000	    -37.81013872	     45.00000000	    -45.00000000	  -3508.50229495	    425.71643951	     21.60280867	    -18.03522406	    721.08400552	     39.78435117	     11.08443122	    -19.70658963
      3.27000000	     28.41683813	     28.19864387	     41.49453876	    -49.33826284	    769.72426609	      9.31949394	     15.04896970	     37.86133562	     34.28816551	     45.00000000	    -45.00000000	   1721.08163489	   -294.50246174	     31.18559222	     40.84334041	    368.38453645	    385.27412297	     16.36484707	     14.20766908	     11.40947070	    -45.00000000	    -37.53186005	     45.00000000	    -45.00000000	  -3508.57707957	    425.54451525	     22.02153878	    -17.86435192	    720.70515066	     40.14086894	     10.97951477	    -19.74016039
      3.28000000	     28.51017531	     27.86988315	     41.42489512	    -48.45477644	    770.47492683	      9.76664831	     15.27490147	     37.90431855	     34.59396289	     45.00000000	    -45.00000000	   1721.03980409	   -294.53877682	     31.30673413	     40.89714401	    368.49231612	    385.60257716	     16.41219410	     14.07513849	     11.22070981	    -45.00000000	    -37.51105700	     45.00000000	    -45.00000000	  -3508.80217696	    425.62978859	     21.91882923	    -17.52606262	    720.84516399	     40.57893023	     10.71394229	    -19.83689628
